<svg id="eAbPVh562gC1" xmlns="http://www.w3.org/2000/svg" xmlns:xlink="http://www.w3.org/1999/xlink" viewBox="0 0 90 90" shape-rendering="geometricPrecision" text-rendering="geometricPrecision" project-id="e7865d9041e34c01b44aef65ad8f7cac" export-id="47dd025e7ee141328c05fa0ba5eb12c3" cached="false"><defs><linearGradient id="eAbPVh562gC13-fill" x1="9.48" y1="17.27" x2="-6.02" y2="-10.98" spreadMethod="pad" gradientUnits="userSpaceOnUse" gradientTransform="translate(0 0)"><stop id="eAbPVh562gC13-fill-0" offset="0%" stop-color="#d97c1e"/><stop id="eAbPVh562gC13-fill-1" offset="100%" stop-color="#f2b613"/></linearGradient><linearGradient id="eAbPVh562gC14-fill" x1="-5.27" y1="-11.98" x2="6.73" y2="15.27" spreadMethod="pad" gradientUnits="userSpaceOnUse" gradientTransform="translate(0 0)"><stop id="eAbPVh562gC14-fill-0" offset="0%" stop-color="#53ab6c"/><stop id="eAbPVh562gC14-fill-1" offset="100%" stop-color="#35993a"/></linearGradient><linearGradient id="eAbPVh562gC15-fill" x1="9.47" y1="17.26" x2="-6.03" y2="-10.99" spreadMethod="pad" gradientUnits="userSpaceOnUse" gradientTransform="translate(0 0)"><stop id="eAbPVh562gC15-fill-0" offset="0%" stop-color="#32548c"/><stop id="eAbPVh562gC15-fill-1" offset="100%" stop-color="#376ab8"/></linearGradient><linearGradient id="eAbPVh562gC16-fill" x1="-5.16" y1="-12.81" x2="5.17" y2="12.86" spreadMethod="pad" gradientUnits="userSpaceOnUse" gradientTransform="translate(0 0)"><stop id="eAbPVh562gC16-fill-0" offset="0%" stop-color="#f36468"/><stop id="eAbPVh562gC16-fill-1" offset="100%" stop-color="#b5181d"/></linearGradient></defs><g transform="matrix(.300251 0 0 0.300251-15.051121-18.661548)"><path d="M135.58,117.84c-.360524-2.15534-2.300123-3.68364-4.48-3.53-9.251527.663986-18.448552,1.943485-27.53,3.83-2.531224.538936-4.917927,1.612952-7,3.15-1.096398.797158-1.740645,2.074479-1.73,3.43v8.64c.010952,2.453117,1.996883,4.439048,4.45,4.45h31.92c2.453117-.010952,4.439048-1.996883,4.45-4.45v-15c-.016294-.174771-.043008-.348413-.08-.52Z" fill="#141d35"/><path d="M264.42,117.84c.360524-2.15534,2.300123-3.68364,4.48-3.53c9.251527.663986,18.448552,1.943485,27.53,3.83c2.531224.538936,4.917927,1.612952,7,3.15c1.096398.797158,1.740645,2.074479,1.73,3.43v8.64c-.010952,2.453117-1.996883,4.439048-4.45,4.45h-31.87c-2.453117-.010952-4.439048-1.996883-4.45-4.45v-15c-.000254-.173773.009764-.347409.03-.52Z" fill="#141d35"/><path d="M295.37,126.6c-48.73-9.42-40.82,1.3-54.46,2.13-6.11.37-31.45,0-40.91,0s-34.8.37-40.91,0c-13.64-.84-5.73-11.55-54.46-2.13-22.24,4.3-42.31,87.58-39.62,133c3.38,57,23.94,64,47.32,28.11s22.82-45.93,50.38-45.93h74.59c27.56,0,27,10,50.38,45.93s43.94,28.89,47.32-28.11c2.68-45.42-17.39-128.7-39.63-133Z" stroke="#e6e6e6" stroke-miterlimit="10"/><path d="M240,128.78c-7.37.3-31,0-40,0s-32.64.34-40,0v113c.88,0,1.78,0,2.71,0h74.59c.94,0,1.84,0,2.71,0Z" fill="#141d35"/><path d="M124.62,198.51c-3.849369,1.125841-7.940631,1.125841-11.79,0-1.428081-.542522-2.395615-1.883697-2.46-3.41v-36.57c.064385-1.526303,1.031919-2.867478,2.46-3.41c3.849369-1.125841,7.940631-1.125841,11.79,0c1.428081.542522,2.395615,1.883697,2.46,3.41v36.57c-.064385,1.526303-1.031919,2.867478-2.46,3.41Z" fill="#fff"/><path d="M140.42,170.92c1.125841,3.849369,1.125841,7.940631,0,11.79-.542522,1.428081-1.883697,2.395615-3.41,2.46h-36.57c-1.537384-.052574-2.893238-1.022167-3.44-2.46-1.125841-3.849369-1.125841-7.940631,0-11.79.542522-1.428081,1.883697-2.395615,3.41-2.46h36.59c1.529999.060462,2.876057,1.028679,3.42,2.46Z" fill="#fff"/><circle r="29.71" transform="translate(159.99 218.15)" fill="#fff"/><circle r="18.86" transform="translate(159.99 218.15)" fill="#141d35"/><circle r="29.71" transform="translate(240.01 218.15)" fill="#f9f9f9"/><circle r="18.86" transform="translate(240.01 218.15)" fill="#141d35"/><circle r="9.46" transform="translate(281.27 156.1)" fill="url(#eAbPVh562gC13-fill)"/><circle r="9.46" transform="translate(281.27 197.53)" fill="url(#eAbPVh562gC14-fill)"/><circle r="9.46" transform="translate(260.56 176.82)" fill="url(#eAbPVh562gC15-fill)"/><circle r="9.46" transform="translate(301.99 176.82)" fill="url(#eAbPVh562gC16-fill)"/><path d="M82.94,309.18l18-64c5.988819-21.631203-6.600793-44.041515-28.19-50.18v0c-.47-.13-.94-.24-1.41-.36-4.86,22.73-7.41,46.85-6.33,64.94c1.8,30.42,8.51,46.59,17.93,49.6Z" fill="#141d35"/><path d="M299.07,245.2l18,64c9.42-3,16.12-19.19,17.93-49.63c1.07-18.09-1.48-42.2-6.33-64.94-.47.11-.94.23-1.41.36v0c-21.604245,6.138178-34.197949,28.569178-28.19,50.21Z" fill="#141d35"/></g></svg>
